<?xml version="1.0" encoding="utf-8"?>
<svg version="1.1" xmlns="http://www.w3.org/2000/svg" viewBox="0 0 1024 1024" xml:lang="fa">
  <style type="text/css"><![CDATA[
    /* @font-face {
  font-family: Dana-FaNum;
  font-style: normal;
  font-weight: normal;
  src: url("../../fonts/Dana/eot/dana-fanum-regular.eot"),
    url("../../fonts/Dana/woff/dana-fanum-regular.woff") format("woff"),
    url("../../fonts/Dana/woff2/dana-fanum-regular.woff2") format("woff2");
}
@font-face {
  font-family: Dana;
  font-style: normal;
  font-weight: normal;
  src: url("../../fonts/Dana/eot/dana-regular.eot"),
    url("../../fonts/Dana/woff/dana-regular.woff") format("woff"),
    url("../../fonts/Dana/woff2/dana-regular.woff2") format("woff2");
} */
/* 
@font-face {
  font-family: Dana-FaNum;
  font-style: normal;
  font-weight: normal;
  src: url("Dana-FaNum.ttf");
}
@font-face {
  font-family: Dana;
  font-style: normal;
  font-weight: normal;
  src: url("Dana.ttf");
} */
/* text {
  direction: rtl;
} */  ]]></style>
  <defs>
  <path id="person" d="M11.2 10.125C10.175 10.125 9.68214 10.6875 8 10.6875C6.31786 10.6875 5.82857 10.125 4.8 10.125C2.15 10.125 0 12.2414 0 14.85V16.3125C0 17.2441 0.767857 18 1.71429 18H14.2857C15.2321 18 16 17.2441 16 16.3125V14.85C16 12.2414 13.85 10.125 11.2 10.125ZM14.8571 16.3125C14.8571 16.6219 14.6 16.875 14.2857 16.875H1.71429C1.4 16.875 1.14286 16.6219 1.14286 16.3125V14.85C1.14286 12.8637 2.78214 11.25 4.8 11.25C5.5 11.25 6.19643 11.8125 8 11.8125C9.8 11.8125 10.5 11.25 11.2 11.25C13.2179 11.25 14.8571 12.8637 14.8571 14.85V16.3125ZM8 9C10.525 9 12.5714 6.98555 12.5714 4.5C12.5714 2.01445 10.525 0 8 0C5.475 0 3.42857 2.01445 3.42857 4.5C3.42857 6.98555 5.475 9 8 9ZM8 1.125C9.88929 1.125 11.4286 2.64023 11.4286 4.5C11.4286 6.35977 9.88929 7.875 8 7.875C6.11071 7.875 4.57143 6.35977 4.57143 4.5C4.57143 2.64023 6.11071 1.125 8 1.125Z" fill="#4B5563"/>
  <path id="calender" d="M13.3929 2.25H11.7857V0.421875C11.7857 0.189844 11.6049 0 11.3839 0H11.1161C10.8951 0 10.7143 0.189844 10.7143 0.421875V2.25H4.28571V0.421875C4.28571 0.189844 4.10491 0 3.88393 0H3.61607C3.39509 0 3.21429 0.189844 3.21429 0.421875V2.25H1.60714C0.719866 2.25 0 3.00586 0 3.9375V16.3125C0 17.2441 0.719866 18 1.60714 18H13.3929C14.2801 18 15 17.2441 15 16.3125V3.9375C15 3.00586 14.2801 2.25 13.3929 2.25ZM1.60714 3.375H13.3929C13.6875 3.375 13.9286 3.62812 13.9286 3.9375V5.625H1.07143V3.9375C1.07143 3.62812 1.3125 3.375 1.60714 3.375ZM13.3929 16.875H1.60714C1.3125 16.875 1.07143 16.6219 1.07143 16.3125V6.75H13.9286V16.3125C13.9286 16.6219 13.6875 16.875 13.3929 16.875ZM4.95536 11.25H3.61607C3.39509 11.25 3.21429 11.0602 3.21429 10.8281V9.42188C3.21429 9.18984 3.39509 9 3.61607 9H4.95536C5.17634 9 5.35714 9.18984 5.35714 9.42188V10.8281C5.35714 11.0602 5.17634 11.25 4.95536 11.25ZM8.16964 11.25H6.83036C6.60938 11.25 6.42857 11.0602 6.42857 10.8281V9.42188C6.42857 9.18984 6.60938 9 6.83036 9H8.16964C8.39062 9 8.57143 9.18984 8.57143 9.42188V10.8281C8.57143 11.0602 8.39062 11.25 8.16964 11.25ZM11.3839 11.25H10.0446C9.82366 11.25 9.64286 11.0602 9.64286 10.8281V9.42188C9.64286 9.18984 9.82366 9 10.0446 9H11.3839C11.6049 9 11.7857 9.18984 11.7857 9.42188V10.8281C11.7857 11.0602 11.6049 11.25 11.3839 11.25ZM8.16964 14.625H6.83036C6.60938 14.625 6.42857 14.4352 6.42857 14.2031V12.7969C6.42857 12.5648 6.60938 12.375 6.83036 12.375H8.16964C8.39062 12.375 8.57143 12.5648 8.57143 12.7969V14.2031C8.57143 14.4352 8.39062 14.625 8.16964 14.625ZM4.95536 14.625H3.61607C3.39509 14.625 3.21429 14.4352 3.21429 14.2031V12.7969C3.21429 12.5648 3.39509 12.375 3.61607 12.375H4.95536C5.17634 12.375 5.35714 12.5648 5.35714 12.7969V14.2031C5.35714 14.4352 5.17634 14.625 4.95536 14.625ZM11.3839 14.625H10.0446C9.82366 14.625 9.64286 14.4352 9.64286 14.2031V12.7969C9.64286 12.5648 9.82366 12.375 10.0446 12.375H11.3839C11.6049 12.375 11.7857 12.5648 11.7857 12.7969V14.2031C11.7857 14.4352 11.6049 14.625 11.3839 14.625Z" fill="#4B5563"/>
  <path id="clock" d="M8 0.25C3.71875 0.25 0.25 3.71875 0.25 8C0.25 12.2812 3.71875 15.75 8 15.75C12.2812 15.75 15.75 12.2812 15.75 8C15.75 3.71875 12.2812 0.25 8 0.25ZM14.75 8C14.75 11.7094 11.7469 14.75 8 14.75C4.29063 14.75 1.25 11.7469 1.25 8C1.25 4.29063 4.25313 1.25 8 1.25C11.7094 1.25 14.75 4.25313 14.75 8ZM10.0969 10.7594L7.55937 8.91562C7.4625 8.84375 7.40625 8.73125 7.40625 8.6125V3.625C7.40625 3.41875 7.575 3.25 7.78125 3.25H8.21875C8.425 3.25 8.59375 3.41875 8.59375 3.625V8.19687L10.7969 9.8C10.9656 9.92188 11 10.1562 10.8781 10.325L10.6219 10.6781C10.5 10.8438 10.2656 10.8812 10.0969 10.7594Z" fill="#4B5563"/>
</defs>

<g font-family="Dana-FaNum">
  <g fill="white" font-weight="bold" font-size="16">
    <rect x="0" y="0" width="100%" height="40" fill="#007BA4"/>
    <text x="100%" y="20" transform="translate(-20, 0)" text-anchor="end" dominant-baseline="middle">آزمون دلبستگی کولینز و رید</text>
    <text x="0" y="20" transform="translate(+20, 0)" font-family="Dana" text-anchor="start" dominant-baseline="middle" direction="ltr">$X1HQ2G3J3</text>
  </g>
  <g transform="translate(0, 40)" fill="#4B5563">
    <rect x="0" y="0" width="100%" height="70" fill="#D7ECF3"/>
    <g fill="#007BA4">
      <text x="100%" y="35" transform="translate(-20, -11)" font-size="14" font-weight="600" text-anchor="end" dominant-baseline="middle">اتاق درمانی دکتر مسعود جان بزرگی</text>
      <text x="100%" y="35" transform="translate(-20, +11)" font-size="12" text-anchor="end" dominant-baseline="middle">کلینیک شخصی محمد رضا سالاری فر</text>
    </g>
    <g fill="#4B5563" font-size="12" font-weight="normal">
      <g transform="translate(0, -11)">
        <svg width="16" height="18" x="50%" y="35" viewBox="8 9 16 18" overflow="visible">
          <use href="#person"/>
        </svg>
      </g>
      <text x="50%" y="35" transform="translate(0, +11)" text-anchor="middle" dominant-baseline="middle">محمدحسن صالحی</text>
      <g transform="translate(0, -11)">
        <svg width="15" height="18" x="17%" y="35" viewBox="0 9 15 18" overflow="visible">
          <use href="#calender"/>
        </svg>
      </g>
      <text x="17%" y="35" transform="translate(-10, -11)" text-anchor="end" dominant-baseline="middle">دوشنبه، 15 شهریور 1400</text>
      <g transform="translate(0, +11)">
        <svg width="16" height="16" x="17%" y="35" viewBox="0 8 16 16" overflow="visible">
          <use href="#clock"/>
        </svg>
      </g>
      <text x="17%" y="35" transform="translate(-10, +11)" text-anchor="end" dominant-baseline="middle">دقیقه <tspan unicode-bidi="embed">1</tspan></text>
    </g>
  </g>
  <g transform="translate(0, 110)" fill="#6B7280"  font-size="14">
    <rect x="0" y="0" width="100%" height="40" fill="#F9FAFB"/>
    <text x="0" y="20" transform="translate(+20, 0)" text-anchor="start" dominant-baseline="middle"><tspan font-weight="600" unicode-bidi="embed">متأهل</tspan> :وضعیت تأهل</text>
    <text x="33.3%" y="20" text-anchor="middle" dominant-baseline="middle"><tspan font-weight="600" unicode-bidi="embed">پزشکی عمومی</tspan> :تحصیلات</text>
    <text x="66.6%" y="20" text-anchor="middle" dominant-baseline="middle"><tspan font-weight="600" unicode-bidi="embed">37</tspan> :سن</text>
    <text x="100%" y="20" transform="translate(-20, 0)" text-anchor="end" dominant-baseline="middle"><tspan font-weight="600" unicode-bidi="embed">مرد</tspan> :جنسیت</text>
  </g>
</g>  
<g transform="translate(0, 150)" font-family="iransans">
  <g fill="transparent" stroke="#E1EDF2">
          <path d='M 512 80 L 127.2 746.5 L 896.8 746.5 Z'/>
          <path d='M 512 100.47 L 144.92 736.26 L 879.08 736.26 Z'/>
          <path d='M 512 120.94 L 162.65 726.03 L 861.35 726.03 Z'/>
          <path d='M 512 141.41 L 180.38 715.79 L 843.62 715.79 Z'/>
          <path d='M 512 161.88 L 198.11 705.56 L 825.89 705.56 Z'/>
          <path d='M 512 182.35 L 215.83 695.32 L 808.17 695.32 Z'/>
          <path d='M 512 202.82 L 233.56 685.09 L 790.44 685.09 Z'/>
          <path d='M 512 223.29 L 251.29 674.85 L 772.71 674.85 Z'/>
          <path d='M 512 243.76 L 269.02 664.62 L 754.98 664.62 Z'/>
          <path d='M 512 264.23 L 286.74 654.38 L 737.26 654.38 Z'/>
          <path d='M 512 284.7 L 304.47 644.15 L 719.53 644.15 Z'/>
          <path d='M 512 305.17 L 322.2 633.91 L 701.8 633.91 Z'/>
          <path d='M 512 325.64 L 339.93 623.68 L 684.07 623.68 Z'/>
          <path d='M 512 346.11 L 357.65 613.44 L 666.35 613.44 Z'/>
          <path d='M 512 366.58 L 375.38 603.21 L 648.62 603.21 Z'/>
          <path d='M 512 387.05 L 393.11 592.97 L 630.89 592.97 Z'/>
          <path d='M 512 407.52 L 410.84 582.74 L 613.16 582.74 Z'/>
          <path d='M 512 427.99 L 428.56 572.5 L 595.44 572.5 Z'/>
          <path d='M 512 448.46 L 446.29 562.27 L 577.71 562.27 Z'/>
          <path d='M 512 468.93 L 464.02 552.03 L 559.98 552.03 Z'/>
          <path d='M 512 489.4 L 481.75 541.8 L 542.25 541.8 Z'/>
      </g>
  <g fill="transparent" stroke="#111827" stroke-width="4">
    <path d='M 512 346.06 L 286.72 654.4 L 790.46 685.1 Z'/>
  </g>
  <g fill="white">
          <circle cx='512' cy='346.06' r="15" stroke='red' stroke-width="2"/>
      <text x='512' y='346.06' font-size="16" font-weight="600" text-anchor="middle" dominant-baseline="middle" fill='red'>7</text>
          <circle cx='286.72' cy='654.4' r="15" stroke='brown' stroke-width="2"/>
      <text x='286.72' y='654.4' font-size="16" font-weight="600" text-anchor="middle" dominant-baseline="middle" fill='brown'>11</text>
          <circle cx='790.46' cy='685.1' r="15" stroke='green' stroke-width="2"/>
      <text x='790.46' y='685.1' font-size="16" font-weight="600" text-anchor="middle" dominant-baseline="middle" fill='green'>14</text>
      </g>
  <g fill="#4B5563">
          <text x='512' y='45' transform="translate(0, -10)" font-size="12" font-weight="bold" text-anchor="middle" dominant-baseline="middle">نزدیک بودن</text>
      <text x='512' y='45' transform="translate(0, +10)" font-size="12" text-anchor="middle" dominant-baseline="middle">(دلبستگی ایمن)</text>
          <text x='96.89' y='764' transform="translate(0, -10)" font-size="12" font-weight="bold" text-anchor="middle" dominant-baseline="middle">اضطراب</text>
      <text x='96.89' y='764' transform="translate(0, +10)" font-size="12" text-anchor="middle" dominant-baseline="middle">(دلبستگی اضطرابی-دوسوگرا)</text>
          <text x='927.11' y='764' transform="translate(0, -10)" font-size="12" font-weight="bold" text-anchor="middle" dominant-baseline="middle">وابستگی</text>
      <text x='927.11' y='764' transform="translate(0, +10)" font-size="12" text-anchor="middle" dominant-baseline="middle">(دلبستگی اجتنابی)</text>
      </g>
  <g>
          <rect x='496.84' y='515.58' width='12' height='12' transform="translate(-6,-6)" fill="white"/>
      <text x='496.84' y='515.58' font-size="12" font-family="Dana-FaNum" text-anchor="middle" dominant-baseline="middle" fill="#9CA3AF">0</text>
          <rect x='452.53' y='490' width='12' height='12' transform="translate(-6,-6)" fill="white"/>
      <text x='452.53' y='490' font-size="12" font-family="Dana-FaNum" text-anchor="middle" dominant-baseline="middle" fill="#9CA3AF">5</text>
          <rect x='408.22' y='464.41' width='12' height='12' transform="translate(-6,-6)" fill="white"/>
      <text x='408.22' y='464.41' font-size="12" font-family="Dana-FaNum" text-anchor="middle" dominant-baseline="middle" fill="#9CA3AF">10</text>
          <rect x='363.91' y='438.83' width='12' height='12' transform="translate(-6,-6)" fill="white"/>
      <text x='363.91' y='438.83' font-size="12" font-family="Dana-FaNum" text-anchor="middle" dominant-baseline="middle" fill="#9CA3AF">15</text>
          <rect x='319.6' y='413.25' width='12' height='12' transform="translate(-6,-6)" fill="white"/>
      <text x='319.6' y='413.25' font-size="12" font-family="Dana-FaNum" text-anchor="middle" dominant-baseline="middle" fill="#9CA3AF">20</text>
      </g>
</g>

  <g fill="white" font-weight="600" font-size="14" transform="translate(0, 994)">
  <rect x="0" y="0" width="100%" height="30" fill="#007BA4"/>
  <text x="50%" y="15" text-anchor="middle" dominant-baseline="middle" font-family="Dana-FaNum" letter-spacing="0.75em">WWW.RISLOO.IR</text>
</g></svg>